<?xml version="1.0" standalone="no"?>
<!DOCTYPE svg PUBLIC "-//W3C//DTD SVG 20010904//EN"
 "http://www.w3.org/TR/2001/REC-SVG-20010904/DTD/svg10.dtd">
<svg version="1.0" xmlns="http://www.w3.org/2000/svg"
 width="600.000000pt" height="192.000000pt" viewBox="0 0 600.000000 192.000000"
 preserveAspectRatio="xMidYMid meet">

<g transform="translate(0.000000,192.000000) scale(0.100000,-0.100000)"
fill="#000000" stroke="none">
<path d="M1340 1661 l-35 -6 0 -88 c0 -88 0 -89 -32 -116 -38 -32 -46 -59 -12
-41 16 9 25 8 40 -6 26 -24 24 -32 -17 -70 l-35 -34 19 -27 c10 -16 21 -38 25
-50 l5 -23 -284 0 c-244 0 -285 2 -290 15 -4 8 -15 15 -25 15 -33 0 -36 7 96
-186 38 -54 95 -138 128 -186 l59 -88 330 -2 330 -3 54 -77 54 -78 -449 0
c-363 0 -451 -3 -460 -13 -6 -8 -8 -17 -4 -20 11 -11 961 -8 968 3 3 5 -26 55
-65 109 l-71 100 64 227 64 227 72 59 c39 32 71 65 71 73 0 29 -27 14 -122
-67 -36 -31 -59 -59 -63 -78 l-7 -30 -204 0 -204 0 0 31 c0 17 11 44 24 62 14
18 26 49 28 72 l3 40 50 5 49 5 -42 34 -43 34 7 78 c5 57 3 83 -6 94 -13 16
-15 16 -70 6z m-490 -541 c0 -74 -13 -77 -56 -12 -50 76 -51 72 5 72 l51 0 0
-60z m170 0 l0 -60 -75 0 -75 0 0 60 0 60 75 0 75 0 0 -60z m178 3 l-3 -58
-77 -3 -78 -3 0 61 0 60 80 0 81 0 -3 -57z m162 3 c0 -52 -1 -54 -31 -60 -17
-3 -48 -6 -69 -6 -36 0 -38 2 -43 38 -4 20 -4 47 -1 60 6 20 12 22 75 22 l69
0 0 -54z m160 -1 l0 -55 -70 0 -70 0 0 55 0 55 70 0 70 0 0 -55z m150 0 l0
-55 -65 0 -65 0 0 55 0 55 65 0 65 0 0 -55z m67 41 c-3 -8 -11 -33 -17 -55
-15 -58 -30 -51 -30 14 0 53 1 55 26 55 19 0 25 -4 21 -14z m-717 -176 l0 -50
-58 0 c-53 0 -59 2 -75 29 -9 16 -17 39 -17 50 0 19 6 21 75 21 l75 0 0 -50z
m180 23 c0 -70 -6 -74 -84 -71 l-71 3 -3 48 -3 47 80 0 81 0 0 -27z m158 -20
l-3 -48 -67 -3 -68 -3 0 51 0 50 71 0 70 0 -3 -47z m162 -3 l0 -50 -70 0 -70
0 0 50 0 50 70 0 70 0 0 -50z m150 0 l0 -50 -65 0 -65 0 0 50 0 50 65 0 65 0
0 -50z m-650 -126 c0 -39 -4 -54 -12 -52 -13 5 -76 87 -77 101 -1 4 19 7 44 7
l45 0 0 -56z m171 49 c0 -5 1 -29 2 -56 l2 -47 -77 0 -78 0 0 55 0 55 75 0
c41 0 75 -3 76 -7z m169 -48 l0 -55 -70 0 -70 0 0 55 0 55 70 0 70 0 0 -55z
m160 0 l0 -55 -70 0 -70 0 0 55 0 55 70 0 70 0 0 -55z m132 0 l-15 -55 -49 0
-48 0 0 55 0 55 64 0 63 0 -15 -55z"/>
<path d="M1972 1180 c-33 -14 -56 -70 -47 -116 5 -30 21 -53 71 -101 58 -56
64 -65 64 -102 0 -30 -5 -43 -19 -51 -43 -23 -81 1 -81 51 0 23 -4 29 -21 29
-20 0 -21 -4 -16 -42 13 -99 136 -122 173 -33 25 60 10 100 -61 170 -65 63
-80 92 -65 130 18 48 86 39 92 -12 2 -20 9 -28 23 -28 20 0 21 8 10 62 -6 24
-52 53 -82 52 -10 0 -28 -4 -41 -9z"/>
<path d="M2180 1010 c0 -110 4 -188 11 -203 23 -50 91 -61 136 -23 l28 24 3
191 c3 187 3 191 -17 191 -20 0 -21 -5 -21 -185 0 -172 -1 -185 -19 -195 -27
-14 -47 -13 -65 6 -13 13 -16 45 -16 195 0 172 -1 179 -20 179 -19 0 -20 -7
-20 -180z"/>
<path d="M2450 974 c0 -191 2 -215 16 -212 13 2 16 19 17 83 l2 80 49 6 c55 6
85 33 87 78 3 48 0 105 -6 128 -7 31 -54 53 -115 53 l-50 0 0 -216z m120 161
c18 -21 24 -104 11 -137 -9 -25 -16 -28 -56 -28 l-45 0 0 74 c0 41 3 81 6 90
8 21 67 21 84 1z"/>
<path d="M2700 975 l0 -215 85 0 c78 0 85 2 85 20 0 18 -7 20 -65 20 l-65 0 0
80 0 80 50 0 c43 0 50 3 50 20 0 17 -7 20 -50 20 l-50 0 0 75 0 75 66 0 c57 0
65 2 62 18 -3 14 -16 17 -86 20 l-82 3 0 -216z"/>
<path d="M2950 975 c0 -194 2 -216 16 -213 13 2 17 18 18 88 l1 85 37 3 c51 4
68 -23 68 -110 0 -62 2 -68 21 -68 20 0 21 4 18 79 -3 66 -8 84 -27 104 -19
20 -20 25 -8 30 21 8 38 81 30 132 -9 61 -32 78 -110 83 l-64 4 0 -217z m124
153 c21 -29 20 -97 0 -126 -12 -18 -24 -22 -52 -20 l-37 3 -3 68 c-2 38 -1 75
2 83 9 23 72 18 90 -8z"/>
<path d="M3210 975 c0 -208 1 -215 20 -215 19 0 20 7 21 163 0 89 4 153 8 142
4 -11 21 -84 36 -162 23 -118 31 -143 46 -143 21 0 21 -3 54 172 16 81 33 145
37 142 4 -3 8 -75 8 -160 0 -130 2 -154 15 -154 13 0 15 31 15 216 l0 215 -27
-3 c-27 -3 -28 -5 -60 -166 -17 -90 -34 -166 -36 -169 -7 -6 -12 14 -42 167
-35 179 -31 170 -66 170 l-29 0 0 -215z"/>
<path d="M3626 1173 c-6 -22 -76 -391 -76 -404 0 -22 30 -6 36 19 14 66 12 63
72 60 l56 -3 9 -42 c6 -34 13 -43 28 -43 15 0 19 5 15 18 -6 19 -76 392 -76
405 0 4 -13 7 -29 7 -20 0 -31 -6 -35 -17z m58 -166 l23 -117 -48 0 c-58 0
-56 -7 -29 132 11 57 20 105 20 107 0 2 2 2 5 -1 3 -2 16 -57 29 -121z"/>
<path d="M3849 1183 c-1 -5 -2 -101 -2 -216 -2 -191 -1 -207 16 -207 15 0 17
11 17 91 l0 90 42 -3 c53 -4 68 -28 68 -115 0 -55 2 -63 19 -63 18 0 19 6 14
78 -3 52 -11 86 -23 103 -18 25 -18 27 2 46 15 16 20 34 21 79 0 68 -14 101
-49 114 -30 12 -124 13 -125 3z m122 -50 c8 -9 14 -39 14 -70 0 -63 -17 -83
-72 -83 l-33 0 0 78 c0 43 3 82 7 85 13 13 71 7 84 -10z"/>
<path d="M4110 975 c0 -208 1 -215 20 -215 18 0 20 7 20 71 0 66 11 109 28
109 4 0 28 -40 52 -90 31 -63 49 -90 62 -90 21 0 18 12 -41 129 -23 44 -41 89
-41 98 0 10 21 56 45 102 49 90 52 101 31 101 -8 0 -38 -45 -68 -100 -29 -55
-56 -100 -60 -100 -5 0 -8 45 -8 100 0 93 -1 100 -20 100 -19 0 -20 -7 -20
-215z"/>
<path d="M4390 975 l0 -215 80 0 c73 0 80 2 80 20 0 16 -8 19 -62 22 l-63 3 0
75 0 75 53 3 c44 3 52 6 52 23 0 16 -7 19 -53 19 l-53 0 0 73 1 72 63 3 c54 3
62 6 62 22 0 18 -7 20 -80 20 l-80 0 0 -215z"/>
<path d="M4620 1170 c0 -16 7 -20 35 -20 l35 0 0 -190 c0 -163 2 -191 15 -197
9 -3 18 -3 21 0 3 3 6 90 7 193 l2 189 38 3 c29 3 37 7 37 23 0 17 -8 19 -95
19 -88 0 -95 -1 -95 -20z"/>
<path d="M4925 1178 c-33 -19 -44 -41 -45 -86 0 -56 18 -88 79 -139 57 -49 72
-90 47 -128 -31 -47 -96 -23 -96 36 0 23 -4 29 -21 29 -19 0 -21 -4 -16 -36 9
-53 32 -82 71 -89 51 -10 88 12 104 60 19 57 -3 108 -72 168 -57 49 -72 80
-56 121 19 50 100 38 100 -16 0 -11 7 -18 19 -18 15 0 18 5 14 23 -16 73 -73
106 -128 75z"/>
<path d="M2663 633 c-20 -7 -17 -132 2 -139 19 -8 45 13 44 35 0 10 -4 8 -10
-7 -16 -40 -34 -20 -37 41 -3 52 -1 57 18 57 12 0 20 -7 21 -17 0 -12 2 -13 6
-5 3 7 -1 19 -7 27 -13 16 -17 17 -37 8z"/>
<path d="M2790 621 c-5 -11 -9 -32 -9 -48 2 -25 2 -25 8 7 4 22 12 36 24 38
16 3 18 -3 15 -54 -3 -62 -18 -79 -36 -42 -6 13 -11 18 -11 12 -2 -21 26 -47
43 -41 23 9 24 132 0 141 -22 8 -22 8 -34 -13z"/>
<path d="M2927 634 c-4 -4 -7 -21 -6 -38 0 -17 3 -25 6 -17 5 11 7 11 14 0 7
-11 9 -9 8 6 -1 29 -13 57 -22 49z"/>
<path d="M2985 604 c-3 -20 -4 -39 -1 -42 3 -3 7 3 8 14 1 10 4 -6 8 -36 l7
-55 1 72 c2 77 -12 105 -23 47z"/>
<path d="M3092 563 c0 -43 3 -64 5 -47 3 21 11 34 24 37 10 3 22 13 25 22 10
25 -12 65 -36 65 -18 0 -20 -6 -18 -77z m43 27 c0 -16 -7 -26 -18 -28 -13 -3
-17 3 -17 28 0 25 4 31 18 28 11 -2 17 -12 17 -28z"/>
<path d="M3227 633 c-4 -3 -6 -38 -5 -77 0 -39 3 -56 5 -38 3 23 9 32 23 32
14 0 20 -9 22 -32 2 -18 4 -1 5 37 1 67 -6 84 -33 85 -6 0 -14 -3 -17 -7z m43
-38 c0 -18 -5 -25 -20 -25 -15 0 -20 7 -20 25 0 18 5 25 20 25 15 0 20 -7 20
-25z"/>
<path d="M3380 621 c0 -11 4 -21 9 -23 5 -1 12 -18 16 -35 6 -31 5 -33 -19
-33 -21 0 -26 -5 -25 -22 1 -17 2 -19 6 -5 2 9 12 17 20 17 9 0 22 -8 30 -17
13 -17 14 -17 9 2 -2 11 -10 46 -16 78 -11 54 -30 79 -30 38z"/>
<path d="M3510 619 c-11 -20 -10 -24 35 -85 16 -22 -10 -41 -32 -24 -17 13
-17 13 -1 -4 9 -11 23 -16 32 -13 24 9 19 51 -9 77 -14 13 -25 27 -25 32 0 16
32 21 41 7 7 -11 9 -11 9 2 0 9 -7 20 -16 23 -22 8 -22 8 -34 -15z"/>
<path d="M3731 563 c1 -43 4 -64 6 -48 2 17 12 36 21 43 15 11 14 12 -1 12
-11 0 -17 8 -17 25 0 15 6 25 14 25 8 0 18 5 21 10 4 6 -5 10 -19 10 -26 0
-26 -1 -25 -77z"/>
<path d="M3876 625 c-3 -9 -6 -26 -5 -38 1 -20 2 -20 9 3 l7 25 7 -30 c13 -50
16 -52 11 -5 -7 50 -19 70 -29 45z"/>
<path d="M4013 633 c-20 -7 -17 -132 2 -139 19 -8 45 13 44 35 0 10 -4 8 -10
-7 -16 -40 -34 -20 -37 41 -3 52 -1 57 18 57 12 0 18 5 15 10 -7 11 -13 11
-32 3z"/>
<path d="M4357 633 c-4 -3 -7 -37 -7 -75 0 -68 0 -68 28 -67 26 0 26 1 5 9
-16 6 -23 18 -23 35 0 19 5 25 23 26 l22 0 -22 9 c-37 15 -29 57 10 51 4 0 7
4 7 9 0 11 -33 14 -43 3z"/>
<path d="M4490 620 c-10 -19 -10 -20 10 -8 17 11 22 11 30 -2 5 -8 10 -10 10
-4 0 12 -20 34 -32 34 -4 0 -12 -9 -18 -20z"/>
<path d="M3372 565 c0 -16 2 -22 5 -12 2 9 2 23 0 30 -3 6 -5 -1 -5 -18z"/>
<path d="M4490 583 c0 -5 9 -18 20 -28 34 -31 18 -71 -18 -44 -16 12 -16 12 0
-5 9 -11 23 -16 32 -13 24 9 19 51 -9 77 -14 13 -25 19 -25 13z"/>
<path d="M2952 545 c-1 -21 16 -68 17 -48 1 6 4 19 8 29 4 11 3 15 -5 11 -6
-4 -13 1 -15 10 -4 15 -5 15 -5 -2z"/>
<path d="M3861 543 c0 -12 -4 -30 -7 -40 -5 -17 -5 -17 6 0 6 9 17 17 25 17 8
0 19 -8 24 -17 9 -16 10 -16 11 5 0 17 -6 22 -24 22 -15 0 -26 7 -29 18 -4 13
-5 12 -6 -5z"/>
<path d="M991 504 c-29 -37 -27 -79 5 -111 21 -21 32 -24 60 -20 43 7 64 28
71 71 12 74 -90 118 -136 60z"/>
<path d="M1600 510 c-31 -31 -27 -93 6 -119 37 -29 70 -26 105 8 35 36 37 69
4 105 -30 33 -85 36 -115 6z"/>
<path d="M4224 499 c-3 -5 6 -9 20 -9 31 0 34 6 6 13 -11 3 -23 1 -26 -4z"/>
</g>
</svg>
